<svg width="28" height="28" viewBox="0 0 28 28" fill="none" xmlns="http://www.w3.org/2000/svg">
<path fill-rule="evenodd" clip-rule="evenodd" d="M8.396 2H19.6028C23.684 2 25.988 4.3148 26 8.396V19.604C26 23.684 23.684 26 19.6028 26H8.396C4.3148 26 2 23.684 2 19.604V8.396C2 4.3148 4.3148 2 8.396 2ZM14.0588 21.032C14.576 21.032 15.0068 20.648 15.0548 20.132V7.904C15.1028 7.532 14.924 7.1588 14.6 6.956C14.2628 6.752 13.8548 6.752 13.532 6.956C13.2068 7.1588 13.028 7.532 13.0628 7.904V20.132C13.124 20.648 13.5548 21.032 14.0588 21.032ZM19.58 21.032C20.084 21.032 20.5148 20.648 20.576 20.132V16.196C20.6108 15.8108 20.432 15.452 20.1068 15.248C19.784 15.044 19.376 15.044 19.04 15.248C18.7148 15.452 18.536 15.8108 18.584 16.196V20.132C18.632 20.648 19.0628 21.032 19.58 21.032ZM9.46279 20.132C9.41479 20.648 8.98399 21.032 8.46679 21.032C7.95079 21.032 7.51879 20.648 7.47199 20.132V11.84C7.43599 11.4668 7.61479 11.096 7.93999 10.892C8.26279 10.688 8.67199 10.688 8.99599 10.892C9.31879 11.096 9.49999 11.4668 9.46279 11.84V20.132Z" fill="#303354"/>
</svg>
