<svg width="28" height="28" viewBox="0 0 28 28" fill="none" xmlns="http://www.w3.org/2000/svg">
<path fill-rule="evenodd" clip-rule="evenodd" d="M19.146 3.22961L19.1472 4.10417C22.3609 4.35604 24.4839 6.54595 24.4873 9.90426L24.5 19.7343C24.5046 23.3958 22.2043 25.6487 18.5171 25.6545L9.51054 25.6662C5.8464 25.6709 3.51729 23.3644 3.51269 19.6924L3.50001 9.97773C3.49541 6.59725 5.54345 4.41318 8.75721 4.11816L8.75605 3.2436C8.7549 2.73052 9.13502 2.34455 9.64185 2.34455C10.1487 2.34339 10.5288 2.72819 10.53 3.24127L10.5311 4.05753L17.3733 4.0482L17.3721 3.23194C17.371 2.71886 17.7511 2.33406 18.2579 2.33289C18.7532 2.33172 19.1449 2.71653 19.146 3.22961ZM5.27507 10.338L22.7146 10.3147V9.9066C22.665 7.39952 21.4072 6.08418 19.1495 5.88828L19.1506 6.78616C19.1506 7.28758 18.7602 7.68521 18.2648 7.68521C17.758 7.68638 17.3767 7.28991 17.3767 6.78849L17.3756 5.84397L10.5334 5.85329L10.5346 6.79666C10.5346 7.29924 10.1556 7.6957 9.64876 7.6957C9.14194 7.69687 8.76066 7.30157 8.76066 6.79899L8.75951 5.9011C6.51334 6.12616 5.27046 7.44616 5.27391 9.9754L5.27507 10.338ZM17.7799 15.6379V15.6507C17.7914 16.1871 18.2291 16.5941 18.7602 16.5824C19.2785 16.5696 19.692 16.1253 19.6805 15.5889C19.6563 15.0758 19.2405 14.6572 18.7233 14.6584C18.1934 14.67 17.7788 15.1015 17.7799 15.6379ZM18.7314 20.8736C18.2015 20.8619 17.7741 20.42 17.773 19.8836C17.7615 19.3472 18.1865 18.9029 18.7164 18.8901H18.7279C19.2693 18.8901 19.7082 19.332 19.7082 19.8801C19.7093 20.4282 19.2716 20.8724 18.7314 20.8736ZM13.0341 15.6566C13.0572 16.1929 13.4961 16.6116 14.0259 16.5883C14.5443 16.5638 14.9578 16.1207 14.9348 15.5843C14.9221 15.0595 14.4959 14.6514 13.9775 14.6526C13.4477 14.6759 13.033 15.1202 13.0341 15.6566ZM14.0305 20.8211C13.5007 20.8445 13.0629 20.4258 13.0388 19.8894C13.0388 19.353 13.4523 18.9099 13.9821 18.8854C14.5005 18.8843 14.9278 19.2924 14.9394 19.816C14.9636 20.3535 14.5489 20.7966 14.0305 20.8211ZM8.28839 15.6974C8.31143 16.2338 8.7503 16.6536 9.28016 16.6291C9.79851 16.6057 10.212 16.1615 10.1878 15.6251C10.1763 15.1003 9.75013 14.6922 9.23063 14.6934C8.70077 14.7167 8.28724 15.161 8.28839 15.6974ZM9.28477 20.827C8.7549 20.8514 8.31719 20.4317 8.293 19.8953C8.29185 19.3589 8.70652 18.9146 9.23639 18.8913C9.75474 18.8901 10.1821 19.2982 10.1936 19.823C10.2178 20.3594 9.80427 20.8036 9.28477 20.827Z" fill="#303354"/>
</svg>
