<svg width="28" height="28" viewBox="0 0 28 28" fill="none" xmlns="http://www.w3.org/2000/svg">
<path fill-rule="evenodd" clip-rule="evenodd" d="M5.04799 2H9.10397C10.796 2 12.152 3.37999 12.152 5.07318V9.16396C12.152 10.868 10.796 12.2359 9.10397 12.2359H5.04799C3.36799 12.2359 2 10.868 2 9.16396V5.07318C2 3.37999 3.36799 2 5.04799 2ZM5.04799 15.7636H9.10397C10.796 15.7636 12.152 17.1328 12.152 18.8368V22.9275C12.152 24.6195 10.796 25.9995 9.10397 25.9995H5.04799C3.36799 25.9995 2 24.6195 2 22.9275V18.8368C2 17.1328 3.36799 15.7636 5.04799 15.7636ZM22.952 2H18.896C17.2041 2 15.8481 3.37999 15.8481 5.07318V9.16396C15.8481 10.868 17.2041 12.2359 18.896 12.2359H22.952C24.632 12.2359 26 10.868 26 9.16396V5.07318C26 3.37999 24.632 2 22.952 2ZM18.896 15.7636H22.952C24.632 15.7636 26 17.1328 26 18.8368V22.9275C26 24.6195 24.632 25.9995 22.952 25.9995H18.896C17.2041 25.9995 15.8481 24.6195 15.8481 22.9275V18.8368C15.8481 17.1328 17.2041 15.7636 18.896 15.7636Z" fill="#303354"/>
</svg>
