<svg width="28" height="28" viewBox="0 0 28 28" fill="none" xmlns="http://www.w3.org/2000/svg">
<path fill-rule="evenodd" clip-rule="evenodd" d="M20.549 5.22484C20.549 3.62887 21.845 2.33289 23.441 2.33289C25.037 2.33289 26.333 3.62887 26.333 5.22484C26.333 6.82082 25.037 8.1168 23.441 8.1168C21.845 8.1168 20.549 6.82082 20.549 5.22484ZM15.929 17.6438L19.3969 13.1691L19.3489 13.1931C19.5409 12.9291 19.5769 12.5931 19.4449 12.2931C19.3141 11.9931 19.0249 11.7891 18.7141 11.7651C18.3889 11.7291 18.0661 11.8731 17.8729 12.1371L14.9702 15.893L11.645 13.2771C11.441 13.1211 11.201 13.0599 10.961 13.0851C10.7222 13.1211 10.5062 13.2519 10.361 13.4439L6.8102 18.065L6.737 18.173C6.533 18.5558 6.629 19.0478 6.989 19.313C7.157 19.421 7.337 19.493 7.541 19.493C7.81819 19.505 8.08099 19.3598 8.24899 19.133L11.261 15.2559L14.681 17.825L14.789 17.8958C15.173 18.0998 15.653 18.005 15.929 17.6438ZM18.4729 4.46921C18.4249 4.76921 18.4009 5.06921 18.4009 5.3692C18.4009 8.06916 20.5849 10.2519 23.2729 10.2519C23.5729 10.2519 23.8609 10.2171 24.1609 10.1691V19.8518C24.1609 23.9209 21.7609 26.3329 17.6809 26.3329H8.81418C4.733 26.3329 2.33301 23.9209 2.33301 19.8518V10.9731C2.33301 6.89318 4.733 4.46921 8.81418 4.46921H18.4729Z" fill="#303354"/>
</svg>
