<svg width="28" height="28" viewBox="0 0 28 28" fill="none" xmlns="http://www.w3.org/2000/svg">
<path fill-rule="evenodd" clip-rule="evenodd" d="M21.8248 10.2619C21.8248 11.7272 22.2121 12.5908 23.0644 13.5861C23.7102 14.3193 23.9166 15.2605 23.9166 16.2816C23.9166 17.3015 23.5815 18.2697 22.9101 19.0558C22.0312 19.9982 20.7917 20.5998 19.5267 20.7044C17.6935 20.8606 15.8592 20.9922 14.0005 20.9922C12.1407 20.9922 10.3075 20.9135 8.4743 20.7044C7.20812 20.5998 5.96861 19.9982 5.09086 19.0558C4.41951 18.2697 4.08325 17.3015 4.08325 16.2816C4.08325 15.2605 4.2908 14.3193 4.93549 13.5861C5.81439 12.5908 6.17616 11.7272 6.17616 10.2619V9.7649C6.17616 7.80262 6.66547 6.51949 7.67308 5.26339C9.17116 3.43153 11.5725 2.33289 13.9483 2.33289H14.0527C16.4795 2.33289 18.9585 3.48441 20.4311 5.39499C21.3865 6.62524 21.8248 7.85432 21.8248 9.7649V10.2619ZM10.5859 23.4039C10.5859 22.8163 11.125 22.5473 11.6236 22.4321C12.2069 22.3087 15.7607 22.3087 16.344 22.4321C16.8426 22.5473 17.3817 22.8163 17.3817 23.4039C17.3527 23.9632 17.0246 24.459 16.5712 24.7739C15.9834 25.2322 15.2935 25.5224 14.5723 25.627C14.1734 25.6787 13.7815 25.6799 13.3965 25.627C12.6741 25.5224 11.9842 25.2322 11.3975 24.7728C10.943 24.459 10.6149 23.9632 10.5859 23.4039Z" fill="#303354"/>
</svg>
