<svg width="28" height="28" viewBox="0 0 28 28" fill="none" xmlns="http://www.w3.org/2000/svg">
<path fill-rule="evenodd" clip-rule="evenodd" d="M9.11167 2.33289H18.8895C22.4933 2.33289 24.5 4.40955 24.5 7.96789V20.0196C24.5 23.6362 22.4933 25.6662 18.8895 25.6662H9.11167C5.565 25.6662 3.5 23.6362 3.5 20.0196V7.96789C3.5 4.40955 5.565 2.33289 9.11167 2.33289ZM9.42667 7.76955V7.75789H12.9138C13.4167 7.75789 13.825 8.16622 13.825 8.66672C13.825 9.18122 13.4167 9.58955 12.9138 9.58955H9.42667C8.92383 9.58955 8.51667 9.18122 8.51667 8.67955C8.51667 8.17789 8.92383 7.76955 9.42667 7.76955ZM9.42667 14.8629H18.5733C19.075 14.8629 19.4833 14.4546 19.4833 13.9529C19.4833 13.4512 19.075 13.0417 18.5733 13.0417H9.42667C8.92383 13.0417 8.51667 13.4512 8.51667 13.9529C8.51667 14.4546 8.92383 14.8629 9.42667 14.8629ZM9.42667 20.1946H18.5733C19.0388 20.1479 19.39 19.7501 19.39 19.2846C19.39 18.8062 19.0388 18.4096 18.5733 18.3629H9.42667C9.07667 18.3279 8.73833 18.4912 8.55167 18.7946C8.365 19.0862 8.365 19.4712 8.55167 19.7746C8.73833 20.0662 9.07667 20.2412 9.42667 20.1946Z" fill="#303354"/>
</svg>
