<svg width="28" height="28" viewBox="0 0 28 28" fill="none" xmlns="http://www.w3.org/2000/svg">
<path fill-rule="evenodd" clip-rule="evenodd" d="M23.8026 15.843C24.2199 16.0647 24.5418 16.4147 24.7683 16.7647C25.2095 17.488 25.1737 18.3747 24.7445 19.1563L23.9099 20.5563C23.4687 21.303 22.6461 21.7697 21.7995 21.7697C21.3822 21.7697 20.9172 21.653 20.5357 21.4197C20.2257 21.2213 19.868 21.1513 19.4865 21.1513C18.3061 21.1513 17.3166 22.1197 17.2808 23.2747C17.2808 24.6163 16.1839 25.6663 14.8128 25.6663H13.1912C11.8082 25.6663 10.7113 24.6163 10.7113 23.2747C10.6875 22.1197 9.69786 21.1513 8.5175 21.1513C8.12404 21.1513 7.76636 21.2213 7.46829 21.4197C7.08676 21.653 6.60984 21.7697 6.20447 21.7697C5.34602 21.7697 4.52335 21.303 4.0822 20.5563L3.25953 19.1563C2.81838 18.398 2.79454 17.488 3.23568 16.7647C3.42645 16.4147 3.78413 16.0647 4.18951 15.843C4.52335 15.6797 4.73796 15.4113 4.94065 15.0963C5.53679 14.093 5.1791 12.7747 4.16566 12.1797C2.9853 11.5147 2.60377 10.033 3.28337 8.87801L4.0822 7.50134C4.77373 6.34634 6.25216 5.93801 7.44444 6.61468C8.48173 7.17467 9.82901 6.80134 10.4371 5.80967C10.6278 5.48301 10.7351 5.13301 10.7113 4.78301C10.6875 4.32801 10.8186 3.89634 11.0451 3.54634C11.4863 2.82301 12.2851 2.35634 13.1555 2.33301H14.8366C15.7189 2.33301 16.5177 2.82301 16.9589 3.54634C17.1735 3.89634 17.3166 4.32801 17.2808 4.78301C17.2569 5.13301 17.3642 5.48301 17.555 5.80967C18.1631 6.80134 19.5104 7.17467 20.5596 6.61468C21.7399 5.93801 23.2303 6.34634 23.9099 7.50134L24.7087 8.87801C25.4002 10.033 25.0187 11.5147 23.8264 12.1797C22.813 12.7747 22.4553 14.093 23.0634 15.0963C23.2541 15.4113 23.4687 15.6797 23.8026 15.843ZM10.6278 14.0113C10.6278 15.843 12.142 17.3013 14.0139 17.3013C15.8858 17.3013 17.3642 15.843 17.3642 14.0113C17.3642 12.1797 15.8858 10.7097 14.0139 10.7097C12.142 10.7097 10.6278 12.1797 10.6278 14.0113Z" fill="#303354"/>
</svg>
