<svg width="20" height="20" viewBox="0 0 20 20" fill="none" xmlns="http://www.w3.org/2000/svg">
<path d="M11.0529 4.04513V2.05785C11.0529 1.79093 11.1474 2.30228 11.0529 2.05785C10.9583 1.81343 10.2336 1.24495 10.0604 1.06422C9.88727 0.883478 10.283 1.1508 10.0604 1.06422C9.83785 0.977628 9.3025 1.04206 9.06799 1.06422H2.12088C1.69559 1.1044 1.41741 1.70164 1.12843 2.05785C0.839451 2.41407 1.12845 2.56741 1.12843 3.05149V14.9752C1.12845 15.4592 0.839451 15.6126 1.12843 15.9688C1.41741 16.325 1.69559 16.9223 2.12088 16.9624L9.06799 17.9561C9.30257 17.9782 9.83779 18.0427 10.0604 17.9561C10.2831 17.8694 9.88726 17.1433 10.0604 16.9624C10.2336 16.7816 10.9584 16.2133 11.0529 15.9688C11.1474 15.7243 11.053 16.2358 11.0529 15.9688V13.9815M10.0604 9.01333H18H10.0604ZM18 9.01333L15.0227 5.03877L18 9.01333ZM18 9.01333L15.0227 12.9879L18 9.01333Z" stroke="#303354" stroke-width="2" stroke-linecap="round" stroke-linejoin="round"/>
</svg>
