<svg width="34" height="40" viewBox="0 0 34 40" fill="none" xmlns="http://www.w3.org/2000/svg">
<g id="Artboard 89">
<path id="Shape" fill-rule="evenodd" clip-rule="evenodd" d="M22.7559 1.89225C27.1647 4.76872 28.0353 10.1217 28.0956 15.0025C28.1211 17.066 28.1016 19.1205 28.0822 21.1723C28.0444 25.164 28.0067 29.1455 28.3 33.1628C28.2794 32.8761 23.6309 32.1864 23.1 32.1628C21.9839 32.1146 20.8294 32.2194 19.688 32.323C19.1255 32.3741 18.5662 32.4249 18.0162 32.457C17.0569 32.5169 16.0761 32.541 15.09 32.5652C13.1994 32.6115 11.289 32.6584 9.47206 32.9599C9.11973 33.0185 8.77203 33.0779 8.42719 33.1368C6.60151 33.4484 4.85564 33.7464 2.92353 33.854C2.7708 33.8805 2.61366 33.8496 2.48236 33.7673C2.3353 33.6467 2.3353 33.429 2.3353 33.2393C2.3353 30.9663 2.43712 28.6942 2.53886 26.4239C2.68258 23.217 2.82615 20.0136 2.68236 16.8158C2.55444 14.0952 3.00556 11.3784 4.00588 8.84519C4.86054 6.66066 6.20128 4.69934 7.92647 3.1099C8.39484 2.68661 8.89755 2.30294 9.42941 1.96284C13.3809 -0.578336 18.775 -0.704806 22.7559 1.89225ZM9.79118 12.9173L11.8632 14.3878L18.5397 7.71284L17.7 7.18196C16.8997 8.53832 15.8014 9.69493 14.4882 10.5643C13.038 11.5605 11.4575 12.3523 9.79118 12.9173Z" fill="#F2D4CF"/>
<path id="Path" d="M33.6882 34.2231C23.8576 41.7924 10.1457 41.7319 0.382355 34.0761L7.53824 30.7216C7.75728 30.6181 7.9708 30.5032 8.17794 30.3775L8.34265 30.2746C8.40147 30.2378 8.45883 30.1996 8.51618 30.1599C9.41898 29.5371 10.1589 28.7064 10.6735 27.7378C11.2618 26.6275 11.4559 25.4011 11.4647 24.1511C11.4647 23.4643 11.4368 22.7775 11.4191 22.0922C11.4191 21.9383 11.4162 21.7839 11.4103 21.629C11.4044 21.1633 11.3995 20.6971 11.3956 20.2305H11.4044L11.6868 20.3775L12.4515 20.7731L16.9059 21.5305L21.4824 22.3099L21.5912 25.9864L21.6162 26.854V27.0114L21.6853 29.3452L23.3721 30.0319L24.6956 30.5672L33.6882 34.2231Z" fill="#F2A196"/>
<path id="Path_2" d="M21.5912 25.9849C21.2731 26.2034 20.893 26.3133 20.5074 26.2981C18.3338 26.0643 14.0897 24.3599 11.4221 21.2055C11.4221 21.0515 11.4191 20.8971 11.4132 20.7422C11.4132 20.5716 11.4132 20.4011 11.4132 20.2305L11.6956 20.3775L12.4603 20.7731L16.9147 21.5305L21.4912 22.3099L21.5912 25.9849Z" fill="#E88870"/>
<circle id="Oval" cx="7.27795" cy="15.5202" r="2.5" fill="#F2A196"/>
<circle id="Oval_2" cx="8.16028" cy="15.2261" r="2.5" fill="#E88870"/>
<path id="Path_3" d="M24.7103 11.7349C26.4368 17.7173 22.7676 24.9511 20.5132 24.9511C17.425 24.9511 9.925 22.4834 8.2 16.5011C6.475 10.5187 8.775 4.60109 13.3338 3.28638C17.8926 1.97168 22.9824 5.75109 24.7103 11.7349Z" fill="#F2A196"/>
<path id="Path_4" d="M16.1721 19.0026C16.8785 19.7919 17.8472 20.2982 18.8985 20.4276" stroke="#E88870"/>
<path id="Path_5" d="M19.2044 12.3643C19.2044 12.3937 19.9088 13.6231 20.2809 14.9511C20.4528 15.6614 20.5324 16.391 20.5176 17.1217H18.5309" stroke="#E88870"/>
<path id="Path_6" d="M21.0294 11.1128C22.0684 10.5836 23.27 10.47 24.3897 10.7952" stroke="#221702"/>
<path id="Path_7" d="M12.3323 11.6981C13.7651 10.9684 15.4485 10.9145 16.925 11.5511" stroke="#221702"/>
<path id="Path_8" d="M14.9118 13.0011C15.8088 13.0085 15.8088 14.379 14.9118 14.3864H14.8706C13.9735 14.3864 13.9735 13.0085 14.8706 13.0011H14.9118Z" fill="#221702"/>
<path id="Path_9" d="M22.2824 12.7967C23.1162 12.7967 23.1162 14.0761 22.2824 14.082H22.2456C21.4132 14.082 21.4132 12.8026 22.2456 12.7967H22.2824Z" fill="#221702"/>
<path id="Path_10" d="M19.3529 1.71578C19.2845 2.40832 19.1731 3.09593 19.0191 3.7746C18.756 4.97223 18.3096 6.12205 17.6956 7.18343C16.8953 8.53979 15.797 9.6964 14.4838 10.5658C13.0336 11.562 11.453 12.3538 9.78677 12.9187C8.48677 13.3717 7.13971 13.4114 5.74854 13.6878C5.79412 12.5658 5.74854 11.4717 5.88677 10.1687C5.98971 9.23343 6.19559 8.34078 6.6103 7.62166C7.73549 5.7189 9.37684 4.17393 11.3441 3.16578L11.3618 3.15696C13.5368 2.03784 16.9059 0.933427 19.3529 1.71578Z" fill="#F2D4CF"/>
<circle id="Oval_3" cx="7.6456" cy="15.5143" r="0.883823" fill="#F2D4CF"/>
<path id="Path_11" d="M5.96912 17.6422C5.91471 17.6334 5.85883 17.6231 5.80295 17.6099C4.74143 17.3658 4.03266 16.3633 4.15658 15.2812C4.2805 14.199 5.19756 13.3827 6.28677 13.3849C6.34942 13.3847 6.40401 13.4275 6.41871 13.4884C6.43341 13.5493 6.40438 13.6124 6.34854 13.6408C5.6992 13.9905 5.27574 14.6499 5.22791 15.3859C5.18008 16.1218 5.51463 16.8306 6.11324 17.2614C6.1916 17.3166 6.22264 17.4179 6.1887 17.5076C6.15477 17.5973 6.06445 17.6527 5.96912 17.6422Z" fill="#F2D4CF"/>
<path id="Path_12" d="M5.92206 13.6173C6.22673 13.5011 6.56411 13.5048 6.86618 13.6276C7.18681 13.7701 7.43169 14.0422 7.53971 14.3761C7.62315 14.6118 7.65914 14.8617 7.64559 15.1114" stroke="#F2D4CF" stroke-width="2"/>
<path id="Path_13" d="M33.6882 34.2231C23.8576 41.7924 10.1457 41.7319 0.382355 34.076L7.53824 30.7216C7.87903 30.5614 8.20611 30.3735 8.51618 30.1599C8.6103 30.0952 8.70442 30.0275 8.79412 29.9569C9.57293 29.361 10.214 28.6041 10.6735 27.7378C11.021 27.0722 11.2517 26.352 11.3559 25.6084C11.4597 25.709 11.5687 25.8043 11.6824 25.8937C12.584 26.561 13.5626 27.1174 14.5971 27.551C15.0993 27.7605 15.6128 27.9417 16.1353 28.0937C17.7094 28.5527 19.3529 28.7265 20.9882 28.6069C21.2147 28.5893 21.4427 28.5672 21.6691 28.551L21.6912 29.2981V29.3466L23.4706 30.0702L33.6882 34.2231Z" fill="#F5C2E9"/>
<path id="Path_14" d="M17.6927 7.1893C16.8923 8.54566 15.7941 9.70227 14.4809 10.5717C13.0306 11.5679 11.4501 12.3596 9.78383 12.9246L5.88383 10.1746L4.00589 8.85107C4.86055 6.66653 6.20128 4.70521 7.92648 3.11577C8.39462 2.69044 8.89733 2.3048 9.42942 1.96283L11.3412 3.17165L17.6927 7.1893Z" fill="url(#paint0_linear_619_3238)"/>
</g>
<defs>
<linearGradient id="paint0_linear_619_3238" x1="13.1856" y1="17.051" x2="19.0986" y2="4.78153" gradientUnits="userSpaceOnUse">
<stop offset="0.29" stop-color="#F2D4CF"/>
<stop offset="0.51" stop-color="#FFD3CC"/>
<stop offset="0.79" stop-color="#F2D4CF"/>
</linearGradient>
</defs>
</svg>
